<svg width="117" height="13" viewBox="0 0 117 13" fill="none" xmlns="http://www.w3.org/2000/svg">
<path d="M5.58594 2.14062L2.1875 12H0.132812L4.41406 0.625H5.72656L5.58594 2.14062ZM8.42969 12L5.02344 2.14062L4.875 0.625H6.19531L10.4922 12H8.42969ZM8.26562 7.78125V9.33594H2.07812V7.78125H8.26562ZM15.0312 10.6562C15.3385 10.6562 15.6146 10.5964 15.8594 10.4766C16.1094 10.3516 16.3099 10.1797 16.4609 9.96094C16.6172 9.74219 16.7031 9.48958 16.7188 9.20312H18.4922C18.4818 9.75 18.3203 10.2474 18.0078 10.6953C17.6953 11.1432 17.2812 11.5 16.7656 11.7656C16.25 12.026 15.6797 12.1562 15.0547 12.1562C14.4089 12.1562 13.8464 12.0469 13.3672 11.8281C12.888 11.6042 12.4896 11.2969 12.1719 10.9062C11.8542 10.5156 11.6146 10.0651 11.4531 9.55469C11.2969 9.04427 11.2188 8.4974 11.2188 7.91406V7.64062C11.2188 7.05729 11.2969 6.51042 11.4531 6C11.6146 5.48438 11.8542 5.03125 12.1719 4.64062C12.4896 4.25 12.888 3.94531 13.3672 3.72656C13.8464 3.5026 14.4062 3.39062 15.0469 3.39062C15.724 3.39062 16.3177 3.52604 16.8281 3.79688C17.3385 4.0625 17.7396 4.4349 18.0312 4.91406C18.3281 5.38802 18.4818 5.9401 18.4922 6.57031H16.7188C16.7031 6.25781 16.625 5.97656 16.4844 5.72656C16.349 5.47135 16.1562 5.26823 15.9062 5.11719C15.6615 4.96615 15.3672 4.89062 15.0234 4.89062C14.6432 4.89062 14.3281 4.96875 14.0781 5.125C13.8281 5.27604 13.6328 5.48438 13.4922 5.75C13.3516 6.01042 13.25 6.30469 13.1875 6.63281C13.1302 6.95573 13.1016 7.29167 13.1016 7.64062V7.91406C13.1016 8.26302 13.1302 8.60156 13.1875 8.92969C13.2448 9.25781 13.3438 9.55208 13.4844 9.8125C13.6302 10.0677 13.8281 10.2734 14.0781 10.4297C14.3281 10.5807 14.6458 10.6562 15.0312 10.6562ZM23.3906 10.6562C23.6979 10.6562 23.974 10.5964 24.2188 10.4766C24.4688 10.3516 24.6693 10.1797 24.8203 9.96094C24.9766 9.74219 25.0625 9.48958 25.0781 9.20312H26.8516C26.8411 9.75 26.6797 10.2474 26.3672 10.6953C26.0547 11.1432 25.6406 11.5 25.125 11.7656C24.6094 12.026 24.0391 12.1562 23.4141 12.1562C22.7682 12.1562 22.2057 12.0469 21.7266 11.8281C21.2474 11.6042 20.849 11.2969 20.5312 10.9062C20.2135 10.5156 19.974 10.0651 19.8125 9.55469C19.6562 9.04427 19.5781 8.4974 19.5781 7.91406V7.64062C19.5781 7.05729 19.6562 6.51042 19.8125 6C19.974 5.48438 20.2135 5.03125 20.5312 4.64062C20.849 4.25 21.2474 3.94531 21.7266 3.72656C22.2057 3.5026 22.7656 3.39062 23.4062 3.39062C24.0833 3.39062 24.6771 3.52604 25.1875 3.79688C25.6979 4.0625 26.099 4.4349 26.3906 4.91406C26.6875 5.38802 26.8411 5.9401 26.8516 6.57031H25.0781C25.0625 6.25781 24.9844 5.97656 24.8438 5.72656C24.7083 5.47135 24.5156 5.26823 24.2656 5.11719C24.0208 4.96615 23.7266 4.89062 23.3828 4.89062C23.0026 4.89062 22.6875 4.96875 22.4375 5.125C22.1875 5.27604 21.9922 5.48438 21.8516 5.75C21.7109 6.01042 21.6094 6.30469 21.5469 6.63281C21.4896 6.95573 21.4609 7.29167 21.4609 7.64062V7.91406C21.4609 8.26302 21.4896 8.60156 21.5469 8.92969C21.6042 9.25781 21.7031 9.55208 21.8438 9.8125C21.9896 10.0677 22.1875 10.2734 22.4375 10.4297C22.6875 10.5807 23.0052 10.6562 23.3906 10.6562ZM27.9375 7.86719V7.6875C27.9375 7.07812 28.026 6.51302 28.2031 5.99219C28.3802 5.46615 28.6354 5.01042 28.9688 4.625C29.3073 4.23438 29.7188 3.93229 30.2031 3.71875C30.6927 3.5 31.2448 3.39062 31.8594 3.39062C32.4792 3.39062 33.0312 3.5 33.5156 3.71875C34.0052 3.93229 34.4193 4.23438 34.7578 4.625C35.0964 5.01042 35.3542 5.46615 35.5312 5.99219C35.7083 6.51302 35.7969 7.07812 35.7969 7.6875V7.86719C35.7969 8.47656 35.7083 9.04167 35.5312 9.5625C35.3542 10.0833 35.0964 10.5391 34.7578 10.9297C34.4193 11.3151 34.0078 11.6172 33.5234 11.8359C33.0391 12.0495 32.4896 12.1562 31.875 12.1562C31.2552 12.1562 30.7005 12.0495 30.2109 11.8359C29.7266 11.6172 29.3151 11.3151 28.9766 10.9297C28.638 10.5391 28.3802 10.0833 28.2031 9.5625C28.026 9.04167 27.9375 8.47656 27.9375 7.86719ZM29.8203 7.6875V7.86719C29.8203 8.2474 29.8594 8.60677 29.9375 8.94531C30.0156 9.28385 30.138 9.58073 30.3047 9.83594C30.4714 10.0911 30.6849 10.2917 30.9453 10.4375C31.2057 10.5833 31.5156 10.6562 31.875 10.6562C32.224 10.6562 32.526 10.5833 32.7812 10.4375C33.0417 10.2917 33.2552 10.0911 33.4219 9.83594C33.5885 9.58073 33.7109 9.28385 33.7891 8.94531C33.8724 8.60677 33.9141 8.2474 33.9141 7.86719V7.6875C33.9141 7.3125 33.8724 6.95833 33.7891 6.625C33.7109 6.28646 33.5859 5.98698 33.4141 5.72656C33.2474 5.46615 33.0339 5.26302 32.7734 5.11719C32.5182 4.96615 32.2135 4.89062 31.8594 4.89062C31.5052 4.89062 31.1979 4.96615 30.9375 5.11719C30.6823 5.26302 30.4714 5.46615 30.3047 5.72656C30.138 5.98698 30.0156 6.28646 29.9375 6.625C29.8594 6.95833 29.8203 7.3125 29.8203 7.6875ZM42.4609 10.0078V3.54688H44.3516V12H42.5703L42.4609 10.0078ZM42.7266 8.25L43.3594 8.23438C43.3594 8.80208 43.2969 9.32552 43.1719 9.80469C43.0469 10.2786 42.8542 10.6927 42.5938 11.0469C42.3333 11.3958 42 11.6693 41.5938 11.8672C41.1875 12.0599 40.7005 12.1562 40.1328 12.1562C39.7214 12.1562 39.3438 12.0964 39 11.9766C38.6562 11.8568 38.3594 11.6719 38.1094 11.4219C37.8646 11.1719 37.6745 10.8464 37.5391 10.4453C37.4036 10.0443 37.3359 9.5651 37.3359 9.00781V3.54688H39.2188V9.02344C39.2188 9.33073 39.2552 9.58854 39.3281 9.79688C39.401 10 39.5 10.1641 39.625 10.2891C39.75 10.4141 39.8958 10.5026 40.0625 10.5547C40.2292 10.6068 40.4062 10.6328 40.5938 10.6328C41.1302 10.6328 41.5521 10.5286 41.8594 10.3203C42.1719 10.1068 42.3932 9.82031 42.5234 9.46094C42.6589 9.10156 42.7266 8.69792 42.7266 8.25ZM48.1484 5.35156V12H46.2656V3.54688H48.0391L48.1484 5.35156ZM47.8125 7.46094L47.2031 7.45312C47.2083 6.85417 47.2917 6.30469 47.4531 5.80469C47.6198 5.30469 47.849 4.875 48.1406 4.51562C48.4375 4.15625 48.7917 3.88021 49.2031 3.6875C49.6146 3.48958 50.0729 3.39062 50.5781 3.39062C50.9844 3.39062 51.3516 3.44792 51.6797 3.5625C52.013 3.67188 52.2969 3.85156 52.5312 4.10156C52.7708 4.35156 52.9531 4.67708 53.0781 5.07812C53.2031 5.47396 53.2656 5.96094 53.2656 6.53906V12H51.375V6.53125C51.375 6.125 51.3151 5.80469 51.1953 5.57031C51.0807 5.33073 50.9115 5.16146 50.6875 5.0625C50.4688 4.95833 50.1953 4.90625 49.8672 4.90625C49.5443 4.90625 49.2552 4.97396 49 5.10938C48.7448 5.24479 48.5286 5.42969 48.3516 5.66406C48.1797 5.89844 48.0469 6.16927 47.9531 6.47656C47.8594 6.78385 47.8125 7.11198 47.8125 7.46094ZM59.0625 3.54688V4.92188H54.2969V3.54688H59.0625ZM55.6719 1.47656H57.5547V9.66406C57.5547 9.92448 57.5911 10.125 57.6641 10.2656C57.7422 10.401 57.849 10.4922 57.9844 10.5391C58.1198 10.5859 58.2786 10.6094 58.4609 10.6094C58.5911 10.6094 58.7161 10.6016 58.8359 10.5859C58.9557 10.5703 59.0521 10.5547 59.125 10.5391L59.1328 11.9766C58.9766 12.0234 58.7943 12.0651 58.5859 12.1016C58.3828 12.138 58.1484 12.1562 57.8828 12.1562C57.4505 12.1562 57.0677 12.0807 56.7344 11.9297C56.401 11.7734 56.1406 11.5208 55.9531 11.1719C55.7656 10.8229 55.6719 10.3594 55.6719 9.78125V1.47656ZM65.2578 9.71094C65.2578 9.52344 65.2109 9.35417 65.1172 9.20312C65.0234 9.04688 64.8438 8.90625 64.5781 8.78125C64.3177 8.65625 63.9323 8.54167 63.4219 8.4375C62.974 8.33854 62.5625 8.22135 62.1875 8.08594C61.8177 7.94531 61.5 7.77604 61.2344 7.57812C60.9688 7.38021 60.763 7.14583 60.6172 6.875C60.4714 6.60417 60.3984 6.29167 60.3984 5.9375C60.3984 5.59375 60.474 5.26823 60.625 4.96094C60.776 4.65365 60.9922 4.38281 61.2734 4.14844C61.5547 3.91406 61.8958 3.72917 62.2969 3.59375C62.7031 3.45833 63.1562 3.39062 63.6562 3.39062C64.3646 3.39062 64.9714 3.51042 65.4766 3.75C65.987 3.98438 66.3776 4.30469 66.6484 4.71094C66.9193 5.11198 67.0547 5.5651 67.0547 6.07031H65.1719C65.1719 5.84635 65.1146 5.63802 65 5.44531C64.8906 5.2474 64.724 5.08854 64.5 4.96875C64.276 4.84375 63.9948 4.78125 63.6562 4.78125C63.3333 4.78125 63.0651 4.83333 62.8516 4.9375C62.6432 5.03646 62.487 5.16667 62.3828 5.32812C62.2839 5.48958 62.2344 5.66667 62.2344 5.85938C62.2344 6 62.2604 6.1276 62.3125 6.24219C62.3698 6.35156 62.4635 6.45312 62.5938 6.54688C62.724 6.63542 62.901 6.71875 63.125 6.79688C63.3542 6.875 63.6406 6.95052 63.9844 7.02344C64.6302 7.15885 65.1849 7.33333 65.6484 7.54688C66.1172 7.75521 66.4766 8.02604 66.7266 8.35938C66.9766 8.6875 67.1016 9.10417 67.1016 9.60938C67.1016 9.98438 67.0208 10.3281 66.8594 10.6406C66.7031 10.9479 66.474 11.2161 66.1719 11.4453C65.8698 11.6693 65.5078 11.8438 65.0859 11.9688C64.6693 12.0938 64.2005 12.1562 63.6797 12.1562C62.9141 12.1562 62.2656 12.0208 61.7344 11.75C61.2031 11.474 60.7995 11.1224 60.5234 10.6953C60.2526 10.263 60.1172 9.8151 60.1172 9.35156H61.9375C61.9583 9.70052 62.0547 9.97917 62.2266 10.1875C62.4036 10.3906 62.6224 10.5391 62.8828 10.6328C63.1484 10.7214 63.4219 10.7656 63.7031 10.7656C64.0417 10.7656 64.3255 10.7214 64.5547 10.6328C64.7839 10.5391 64.9583 10.4141 65.0781 10.2578C65.1979 10.0964 65.2578 9.91406 65.2578 9.71094ZM76.1875 10.6562C76.4948 10.6562 76.7708 10.5964 77.0156 10.4766C77.2656 10.3516 77.4661 10.1797 77.6172 9.96094C77.7734 9.74219 77.8594 9.48958 77.875 9.20312H79.6484C79.638 9.75 79.4766 10.2474 79.1641 10.6953C78.8516 11.1432 78.4375 11.5 77.9219 11.7656C77.4062 12.026 76.8359 12.1562 76.2109 12.1562C75.5651 12.1562 75.0026 12.0469 74.5234 11.8281C74.0443 11.6042 73.6458 11.2969 73.3281 10.9062C73.0104 10.5156 72.7708 10.0651 72.6094 9.55469C72.4531 9.04427 72.375 8.4974 72.375 7.91406V7.64062C72.375 7.05729 72.4531 6.51042 72.6094 6C72.7708 5.48438 73.0104 5.03125 73.3281 4.64062C73.6458 4.25 74.0443 3.94531 74.5234 3.72656C75.0026 3.5026 75.5625 3.39062 76.2031 3.39062C76.8802 3.39062 77.474 3.52604 77.9844 3.79688C78.4948 4.0625 78.8958 4.4349 79.1875 4.91406C79.4844 5.38802 79.638 5.9401 79.6484 6.57031H77.875C77.8594 6.25781 77.7812 5.97656 77.6406 5.72656C77.5052 5.47135 77.3125 5.26823 77.0625 5.11719C76.8177 4.96615 76.5234 4.89062 76.1797 4.89062C75.7995 4.89062 75.4844 4.96875 75.2344 5.125C74.9844 5.27604 74.7891 5.48438 74.6484 5.75C74.5078 6.01042 74.4062 6.30469 74.3438 6.63281C74.2865 6.95573 74.2578 7.29167 74.2578 7.64062V7.91406C74.2578 8.26302 74.2865 8.60156 74.3438 8.92969C74.401 9.25781 74.5 9.55208 74.6406 9.8125C74.7865 10.0677 74.9844 10.2734 75.2344 10.4297C75.4844 10.5807 75.8021 10.6562 76.1875 10.6562ZM84.8203 12.1562C84.1953 12.1562 83.6302 12.0547 83.125 11.8516C82.625 11.6432 82.1979 11.3542 81.8438 10.9844C81.4948 10.6146 81.2266 10.1797 81.0391 9.67969C80.8516 9.17969 80.7578 8.64062 80.7578 8.0625V7.75C80.7578 7.08854 80.8542 6.48958 81.0469 5.95312C81.2396 5.41667 81.5078 4.95833 81.8516 4.57812C82.1953 4.19271 82.6016 3.89844 83.0703 3.69531C83.5391 3.49219 84.0469 3.39062 84.5938 3.39062C85.1979 3.39062 85.7266 3.49219 86.1797 3.69531C86.6328 3.89844 87.0078 4.1849 87.3047 4.55469C87.6068 4.91927 87.8307 5.35417 87.9766 5.85938C88.1276 6.36458 88.2031 6.92188 88.2031 7.53125V8.33594H81.6719V6.98438H86.3438V6.83594C86.3333 6.4974 86.2656 6.17969 86.1406 5.88281C86.0208 5.58594 85.8359 5.34635 85.5859 5.16406C85.3359 4.98177 85.0026 4.89062 84.5859 4.89062C84.2734 4.89062 83.9948 4.95833 83.75 5.09375C83.5104 5.22396 83.3099 5.41406 83.1484 5.66406C82.987 5.91406 82.862 6.21615 82.7734 6.57031C82.6901 6.91927 82.6484 7.3125 82.6484 7.75V8.0625C82.6484 8.43229 82.6979 8.77604 82.7969 9.09375C82.901 9.40625 83.0521 9.67969 83.25 9.91406C83.4479 10.1484 83.6875 10.3333 83.9688 10.4688C84.25 10.599 84.5703 10.6641 84.9297 10.6641C85.3828 10.6641 85.7865 10.5729 86.1406 10.3906C86.4948 10.2083 86.8021 9.95052 87.0625 9.61719L88.0547 10.5781C87.8724 10.8438 87.6354 11.099 87.3438 11.3438C87.0521 11.5833 86.6953 11.7786 86.2734 11.9297C85.8568 12.0807 85.3724 12.1562 84.8203 12.1562ZM91.5391 5.35156V12H89.6562V3.54688H91.4297L91.5391 5.35156ZM91.2031 7.46094L90.5938 7.45312C90.599 6.85417 90.6823 6.30469 90.8438 5.80469C91.0104 5.30469 91.2396 4.875 91.5312 4.51562C91.8281 4.15625 92.1823 3.88021 92.5938 3.6875C93.0052 3.48958 93.4635 3.39062 93.9688 3.39062C94.375 3.39062 94.7422 3.44792 95.0703 3.5625C95.4036 3.67188 95.6875 3.85156 95.9219 4.10156C96.1615 4.35156 96.3438 4.67708 96.4688 5.07812C96.5938 5.47396 96.6562 5.96094 96.6562 6.53906V12H94.7656V6.53125C94.7656 6.125 94.7057 5.80469 94.5859 5.57031C94.4714 5.33073 94.3021 5.16146 94.0781 5.0625C93.8594 4.95833 93.5859 4.90625 93.2578 4.90625C92.9349 4.90625 92.6458 4.97396 92.3906 5.10938C92.1354 5.24479 91.9193 5.42969 91.7422 5.66406C91.5703 5.89844 91.4375 6.16927 91.3438 6.47656C91.25 6.78385 91.2031 7.11198 91.2031 7.46094ZM102.453 3.54688V4.92188H97.6875V3.54688H102.453ZM99.0625 1.47656H100.945V9.66406C100.945 9.92448 100.982 10.125 101.055 10.2656C101.133 10.401 101.24 10.4922 101.375 10.5391C101.51 10.5859 101.669 10.6094 101.852 10.6094C101.982 10.6094 102.107 10.6016 102.227 10.5859C102.346 10.5703 102.443 10.5547 102.516 10.5391L102.523 11.9766C102.367 12.0234 102.185 12.0651 101.977 12.1016C101.773 12.138 101.539 12.1562 101.273 12.1562C100.841 12.1562 100.458 12.0807 100.125 11.9297C99.7917 11.7734 99.5312 11.5208 99.3438 11.1719C99.1562 10.8229 99.0625 10.3594 99.0625 9.78125V1.47656ZM107.633 12.1562C107.008 12.1562 106.443 12.0547 105.938 11.8516C105.438 11.6432 105.01 11.3542 104.656 10.9844C104.307 10.6146 104.039 10.1797 103.852 9.67969C103.664 9.17969 103.57 8.64062 103.57 8.0625V7.75C103.57 7.08854 103.667 6.48958 103.859 5.95312C104.052 5.41667 104.32 4.95833 104.664 4.57812C105.008 4.19271 105.414 3.89844 105.883 3.69531C106.352 3.49219 106.859 3.39062 107.406 3.39062C108.01 3.39062 108.539 3.49219 108.992 3.69531C109.445 3.89844 109.82 4.1849 110.117 4.55469C110.419 4.91927 110.643 5.35417 110.789 5.85938C110.94 6.36458 111.016 6.92188 111.016 7.53125V8.33594H104.484V6.98438H109.156V6.83594C109.146 6.4974 109.078 6.17969 108.953 5.88281C108.833 5.58594 108.648 5.34635 108.398 5.16406C108.148 4.98177 107.815 4.89062 107.398 4.89062C107.086 4.89062 106.807 4.95833 106.562 5.09375C106.323 5.22396 106.122 5.41406 105.961 5.66406C105.799 5.91406 105.674 6.21615 105.586 6.57031C105.503 6.91927 105.461 7.3125 105.461 7.75V8.0625C105.461 8.43229 105.51 8.77604 105.609 9.09375C105.714 9.40625 105.865 9.67969 106.062 9.91406C106.26 10.1484 106.5 10.3333 106.781 10.4688C107.062 10.599 107.383 10.6641 107.742 10.6641C108.195 10.6641 108.599 10.5729 108.953 10.3906C109.307 10.2083 109.615 9.95052 109.875 9.61719L110.867 10.5781C110.685 10.8438 110.448 11.099 110.156 11.3438C109.865 11.5833 109.508 11.7786 109.086 11.9297C108.669 12.0807 108.185 12.1562 107.633 12.1562ZM114.375 5.15625V12H112.492V3.54688H114.289L114.375 5.15625ZM116.961 3.49219L116.945 5.24219C116.831 5.22135 116.706 5.20573 116.57 5.19531C116.44 5.1849 116.31 5.17969 116.18 5.17969C115.857 5.17969 115.573 5.22656 115.328 5.32031C115.083 5.40885 114.878 5.53906 114.711 5.71094C114.549 5.8776 114.424 6.08073 114.336 6.32031C114.247 6.5599 114.195 6.82812 114.18 7.125L113.75 7.15625C113.75 6.625 113.802 6.13281 113.906 5.67969C114.01 5.22656 114.167 4.82812 114.375 4.48438C114.589 4.14062 114.854 3.8724 115.172 3.67969C115.495 3.48698 115.867 3.39062 116.289 3.39062C116.404 3.39062 116.526 3.40104 116.656 3.42188C116.792 3.44271 116.893 3.46615 116.961 3.49219Z" fill="#0095F6"/>
</svg>
