<svg width="22" height="22" viewBox="0 0 22 22" fill="none" xmlns="http://www.w3.org/2000/svg">
<g clip-path="url(#clip0_60_4710)">
<path d="M20.8542 22H13.7958C13.4292 22 13.1083 21.6791 13.1083 21.3125V15.675C13.1083 14.4833 12.1458 13.5666 11 13.5666C9.85417 13.5666 8.89167 14.5291 8.89167 15.675V21.3125C8.89167 21.6791 8.57084 22 8.20417 22H1.14584C0.779169 22 0.458336 21.6791 0.458336 21.3125V10.5416C0.458336 10.3583 0.550003 10.175 0.641669 10.0375L10.4958 0.183301C10.7708 -0.0916992 11.2292 -0.0916992 11.4583 0.183301L21.3125 10.0375C21.45 10.175 21.4958 10.3583 21.4958 10.5416V21.3125C21.5417 21.6791 21.2208 22 20.8542 22Z" fill="#262626"/>
</g>
<defs>
<clipPath id="clip0_60_4710">
<rect width="22" height="22" fill="white"/>
</clipPath>
</defs>
</svg>
