<svg width="40" height="40" viewBox="0 0 40 40" fill="none" xmlns="http://www.w3.org/2000/svg">
<g clip-path="url(#clip0_60_4726)">
<path fill-rule="evenodd" clip-rule="evenodd" d="M31.35 18.3L30.3 17.75C30.1 17.65 29.95 17.5 29.9 17.25C29.65 16.45 29.35 15.65 28.95 14.9C28.85 14.7 28.8 14.5 28.9 14.3L29.3 13.15C29.4 12.9 29.3 12.6 29.1 12.4L27.65 10.95C27.45 10.75 27.15 10.7 26.9 10.75L25.75 11.15C25.55 11.2 25.35 11.2 25.15 11.1C24.45 10.7 23.65 10.35 22.85 10.15C22.65 10.1 22.45 9.95 22.35 9.75L21.8 8.65C21.65 8.4 21.4 8.25 21.15 8.25H19.1C18.8 8.25 18.55 8.4 18.45 8.65L17.9 9.75C17.8 9.95 17.65 10.1 17.4 10.15C16.6 10.4 15.8 10.7 15.1 11.1C14.9 11.2 14.7 11.25 14.5 11.15L13.35 10.75C13.1 10.65 12.8 10.75 12.6 10.95L10.95 12.4C10.75 12.6 10.7 12.9 10.75 13.15L11.15 14.3C11.2 14.5 11.2 14.7 11.1 14.9C10.7 15.65 10.35 16.4 10.15 17.25C10.1 17.45 9.95 17.65 9.75 17.75L8.7 18.3C8.45 18.45 8.3 18.7 8.3 18.95V21C8.3 21.3 8.45 21.55 8.7 21.65L9.75 22.2C9.95 22.3 10.1 22.45 10.15 22.7C10.4 23.5 10.7 24.3 11.1 25.05C11.2 25.25 11.25 25.45 11.15 25.65L10.75 26.8C10.65 27.05 10.75 27.35 10.95 27.55L12.4 29C12.6 29.2 12.9 29.25 13.15 29.2L14.3 28.8C14.5 28.75 14.7 28.75 14.9 28.85C15.6 29.25 16.4 29.6 17.2 29.8C17.4 29.85 17.6 30 17.7 30.2L18.25 31.3C18.4 31.55 18.65 31.7 18.9 31.7H20.95C21.25 31.7 21.5 31.55 21.6 31.3L22.15 30.2C22.25 30 22.4 29.85 22.65 29.8C23.45 29.55 24.25 29.25 24.95 28.85C25.15 28.75 25.35 28.7 25.55 28.8L26.7 29.2C26.95 29.3 27.25 29.2 27.45 29L28.9 27.55C29.1 27.35 29.15 27.05 29.1 26.8L28.7 25.65C28.65 25.45 28.65 25.25 28.75 25.05C29.15 24.3 29.5 23.55 29.7 22.7C29.75 22.5 29.9 22.3 30.1 22.2L31.15 21.65C31.4 21.5 31.55 21.25 31.55 21V18.95C31.75 18.7 31.6 18.4 31.35 18.3ZM20 28.75C15.15 28.75 11.25 24.85 11.25 20C11.25 15.15 15.15 11.25 20 11.25C24.85 11.25 28.75 15.15 28.75 20C28.75 24.85 24.85 28.75 20 28.75Z" fill="#262626"/>
</g>
<defs>
<clipPath id="clip0_60_4726">
<rect width="24" height="24" fill="white" transform="translate(8 8)"/>
</clipPath>
</defs>
</svg>
